<svg xmlns="http://www.w3.org/2000/svg"><path d="M29.386 22.71a17 17 0 0 0-.47-1.154l-.752-1.65-.02-.042a369 369 0 0 0-7.078-14.477l-.105-.204-.783-1.495a9.7 9.7 0 0 0-1.15-1.771A5.36 5.36 0 0 0 14.917 0a5.37 5.37 0 0 0-4.111 1.918 9.8 9.8 0 0 0-1.15 1.77l-.79 1.51-.097.189A370 370 0 0 0 1.69 19.864l-.032.07a108 108 0 0 0-.739 1.622l-.47 1.154a7.1 7.1 0 0 0-.382 3.448 6.81 6.81 0 0 0 4.18 5.335 7 7 0 0 0 2.62.507q.422 0 .843-.05a8.6 8.6 0 0 0 3.222-1.086c1.3-.73 2.583-1.8 3.985-3.33 1.402 1.53 2.686 2.6 3.986 3.33a8.6 8.6 0 0 0 3.221 1.087q.42.049.845.049a6.9 6.9 0 0 0 2.62-.507 6.81 6.81 0 0 0 4.18-5.335 7.1 7.1 0 0 0-.383-3.448m-14.469 1.667c-1.735-2.2-2.85-4.243-3.24-5.956a5.3 5.3 0 0 1-.111-1.964c.068-.48.244-.94.516-1.342a3.58 3.58 0 0 1 5.671 0c.271.403.448.862.516 1.343a5.3 5.3 0 0 1-.112 1.964c-.39 1.713-1.504 3.755-3.24 5.955m12.824 1.492a4.76 4.76 0 0 1-2.923 3.73 5 5 0 0 1-2.457.322 6.5 6.5 0 0 1-2.454-.839c-1.157-.65-2.328-1.647-3.646-3.11 2.098-2.587 3.408-4.972 3.893-7.095.218-.893.266-1.82.14-2.73a5.2 5.2 0 0 0-.852-2.188 5.62 5.62 0 0 0-4.524-2.281 5.63 5.63 0 0 0-4.525 2.28 5.2 5.2 0 0 0-.852 2.188 7.3 7.3 0 0 0 .14 2.729c.484 2.124 1.794 4.509 3.892 7.096-1.318 1.464-2.488 2.462-3.645 3.111a6.5 6.5 0 0 1-2.454.838 5 5 0 0 1-2.458-.321 4.78 4.78 0 0 1-2.922-3.73 5 5 0 0 1 .284-2.474l.415-1.013.725-1.592.032-.07a368 368 0 0 1 7.04-14.397l.098-.19.772-1.477q.376-.753.904-1.412a3.31 3.31 0 0 1 3.964-.885c.441.208.831.51 1.142.885a8 8 0 0 1 .904 1.411l.766 1.464.105.204a367 367 0 0 1 7.04 14.397l.02.043.737 1.619.415 1.012a5 5 0 0 1 .284 2.475m13.944-1.749q-1.2 0-2.206-.48a5.5 5.5 0 0 1-1.758-1.346c-.511-.577-.895-1.25-1.182-1.986-.288-.769-.416-1.602-.416-2.499s.16-1.762.448-2.53a7 7 0 0 1 1.214-2.05 5.5 5.5 0 0 1 1.822-1.378 5.3 5.3 0 0 1 2.27-.48c.799 0 1.502.16 2.141.512.64.32 1.15.801 1.566 1.41l.096-1.57h2.94V23.8h-2.94l-.096-1.761a4.5 4.5 0 0 1-1.662 1.537c-.64.352-1.406.545-2.237.545m.767-2.883c.575 0 1.087-.16 1.566-.449.448-.32.8-.736 1.087-1.249.256-.513.383-1.121.383-1.794s-.127-1.281-.383-1.794a3.4 3.4 0 0 0-1.087-1.249c-.447-.32-.99-.448-1.566-.448s-1.087.16-1.566.448c-.448.32-.8.737-1.087 1.25-.256.512-.384 1.12-.384 1.793s.128 1.281.384 1.794.64.929 1.087 1.25c.48.287.99.448 1.566.448M53.639 8.456c0 .352-.064.673-.224.929a1.85 1.85 0 0 1-.67.64c-.287.16-.608.225-.928.225a1.9 1.9 0 0 1-.927-.225 1.85 1.85 0 0 1-.67-.64 1.8 1.8 0 0 1-.225-.93c0-.351.064-.672.224-.928.16-.288.384-.48.671-.64a1.9 1.9 0 0 1 .927-.225 1.9 1.9 0 0 1 .927.224c.287.16.512.385.671.641a2 2 0 0 1 .224.929m-3.42 15.311V11.691h3.196v12.076zm11.73-8.905v.032c-.159-.064-.35-.096-.51-.128-.192-.032-.352-.032-.544-.032-.895 0-1.566.256-2.014.801-.48.544-.703 1.313-.703 2.306v5.926h-3.196V11.691h2.94l.096 1.826c.32-.64.703-1.121 1.247-1.473.511-.353 1.118-.513 1.822-.513.223 0 .447.032.639.064.096.032.16.032.224.064zm1.28 8.905V6.727h3.196v6.502a5.1 5.1 0 0 1 1.598-1.378 4.7 4.7 0 0 1 2.142-.512q1.198 0 2.205.48a5.5 5.5 0 0 1 1.758 1.346c.511.576.895 1.249 1.183 1.986.287.768.415 1.601.415 2.498s-.16 1.762-.447 2.53a7 7 0 0 1-1.215 2.05 5.5 5.5 0 0 1-1.822 1.378 5.3 5.3 0 0 1-2.27.48c-.798 0-1.502-.16-2.14-.512-.64-.32-1.152-.8-1.567-1.41l-.096 1.57zm6.168-2.53c.576 0 1.087-.16 1.566-.449.448-.32.8-.736 1.087-1.249.256-.513.384-1.121.384-1.794s-.128-1.281-.384-1.794c-.287-.512-.639-.928-1.087-1.249s-.99-.448-1.566-.448-1.086.16-1.566.448c-.447.32-.799.737-1.087 1.25-.255.512-.383 1.12-.383 1.793s.128 1.281.383 1.794.64.929 1.087 1.25c.48.287.991.448 1.566.448m7.544 2.53V11.691h2.94l.096 1.57c.352-.577.831-1.025 1.439-1.378s1.31-.512 2.11-.512c.894 0 1.661.224 2.3.64.672.417 1.183 1.026 1.535 1.794s.543 1.698.543 2.755v7.24h-3.196v-6.824c0-.832-.192-1.505-.575-1.986s-.895-.736-1.567-.736c-.48 0-.895.096-1.278.32a2.4 2.4 0 0 0-.863.929c-.224.384-.32.865-.32 1.345v6.92zm12.561 0V6.727H92.7v6.502a5.1 5.1 0 0 1 1.598-1.378 4.7 4.7 0 0 1 2.142-.512q1.199 0 2.205.48c.671.32 1.247.769 1.758 1.346s.895 1.249 1.183 1.986c.288.768.415 1.601.415 2.498a7.3 7.3 0 0 1-.447 2.53 7 7 0 0 1-1.215 2.05 5.5 5.5 0 0 1-1.822 1.378 5.3 5.3 0 0 1-2.27.48c-.798 0-1.501-.16-2.14-.512-.64-.32-1.151-.8-1.567-1.41l-.096 1.57zm6.202-2.53c.575 0 1.086-.16 1.566-.449a3.75 3.75 0 0 0 1.087-1.249c.255-.513.383-1.121.383-1.794s-.128-1.281-.383-1.794a3.4 3.4 0 0 0-1.087-1.249c-.448-.32-.991-.448-1.566-.448s-1.087.16-1.567.448c-.447.32-.799.737-1.087 1.25s-.383 1.12-.383 1.793.128 1.281.383 1.794.64.929 1.087 1.25c.48.287.96.448 1.567.448"/></svg>